<svg xmlns="http://www.w3.org/2000/svg" xmlns:xlink="http://www.w3.org/1999/xlink" version="1.1" width="45.497" height="45.498" style="enable-background:new 0 0 45.497 45.498;" xml:space="preserve"><rect id="backgroundrect" width="100%" height="100%" x="0" y="0" fill="none" stroke="none"/>

<g class="currentLayer" style=""><title>Layer 1</title><g id="svg_1" class="selected" fill="#ffffff" fill-opacity="1">
	<g id="svg_2" fill="#ffffff" fill-opacity="1">
		<linearGradient id="SVGID_1_" gradientUnits="userSpaceOnUse" x1="43.607398986816406" y1="1.8920999765396118" x2="1.1572999954223633" y2="44.342201232910156">
			<stop offset="0" style="stop-color:#31C2DD"/>
			<stop offset="1" style="stop-color:#0B9BD7"/>
		</linearGradient>
		<path style="" d="M22.749,35c-6.755,0-12.25-5.495-12.25-12.25s5.495-12.25,12.25-12.25    s12.25,5.495,12.25,12.25S29.504,35,22.749,35L22.749,35z M22.749,14.5c-4.549,0-8.25,3.701-8.25,8.25S18.2,31,22.749,31    s8.25-3.701,8.25-8.25S27.298,14.5,22.749,14.5L22.749,14.5z" id="svg_3" fill="#ffffff" fill-opacity="1"/>
	</g>
	<g id="svg_4" fill="#ffffff" fill-opacity="1">
		<linearGradient id="SVGID_2_" gradientUnits="userSpaceOnUse" x1="34.10639953613281" y1="-7.607900142669678" x2="-8.34220027923584" y2="34.8406982421875">
			<stop offset="0" style="stop-color:#31C2DD"/>
			<stop offset="1" style="stop-color:#0B9BD7"/>
		</linearGradient>
		<path style="" d="M22.999,7c-0.829,0-1.5-0.672-1.5-1.5v-4c0-0.828,0.671-1.5,1.5-1.5    c0.828,0,1.5,0.672,1.5,1.5v4C24.499,6.328,23.827,7,22.999,7L22.999,7z" id="svg_5" fill="#ffffff" fill-opacity="1"/>
	</g>
	<g id="svg_6" fill="#ffffff" fill-opacity="1">
		<linearGradient id="SVGID_3_" gradientUnits="userSpaceOnUse" x1="30.504899978637695" y1="-11.210399627685547" x2="-11.945099830627441" y2="31.239500045776367">
			<stop offset="0" style="stop-color:#31C2DD"/>
			<stop offset="1" style="stop-color:#0B9BD7"/>
		</linearGradient>
		<path style="" d="M14.342,9.186c-0.519,0-1.022-0.269-1.3-0.75l-2-3.463    c-0.415-0.717-0.169-1.635,0.549-2.049c0.717-0.415,1.635-0.169,2.049,0.549l2,3.463c0.415,0.717,0.169,1.635-0.549,2.049    C14.855,9.121,14.597,9.186,14.342,9.186L14.342,9.186z" id="svg_7" fill="#ffffff" fill-opacity="1"/>
	</g>
	<g id="svg_8" fill="#ffffff" fill-opacity="1">
		<linearGradient id="SVGID_4_" gradientUnits="userSpaceOnUse" x1="30.414100646972656" y1="-11.301300048828125" x2="-12.036100387573242" y2="31.14889907836914">
			<stop offset="0" style="stop-color:#31C2DD"/>
			<stop offset="1" style="stop-color:#0B9BD7"/>
		</linearGradient>
		<path style="" d="M7.934,15.408c-0.254,0-0.512-0.064-0.749-0.201l-3.464-2    c-0.717-0.414-0.963-1.331-0.549-2.049s1.331-0.964,2.049-0.549l3.464,2c0.717,0.414,0.963,1.331,0.549,2.049    C8.957,15.14,8.453,15.408,7.934,15.408L7.934,15.408z" id="svg_9" fill="#ffffff" fill-opacity="1"/>
	</g>
	<g id="svg_10" fill="#ffffff" fill-opacity="1">
		<linearGradient id="SVGID_5_" gradientUnits="userSpaceOnUse" x1="33.8583984375" y1="-7.857399940490723" x2="-8.59160041809082" y2="34.592498779296875">
			<stop offset="0" style="stop-color:#31C2DD"/>
			<stop offset="1" style="stop-color:#0B9BD7"/>
		</linearGradient>
		<path style="" d="M5.5,24h-4C0.671,24,0,23.328,0,22.5S0.671,21,1.5,21h4C6.329,21,7,21.672,7,22.5    S6.329,24,5.5,24L5.5,24z" id="svg_11" fill="#ffffff" fill-opacity="1"/>
	</g>
	<g id="svg_12" fill="#ffffff" fill-opacity="1">
		<linearGradient id="SVGID_6_" gradientUnits="userSpaceOnUse" x1="39.91600036621094" y1="-1.8032000064849854" x2="-2.536799907684326" y2="40.649600982666016">
			<stop offset="0" style="stop-color:#31C2DD"/>
			<stop offset="1" style="stop-color:#0B9BD7"/>
		</linearGradient>
		<path style="" d="M4.224,34.658c-0.519,0-1.022-0.269-1.3-0.75c-0.415-0.717-0.169-1.635,0.549-2.049l3.463-2    c0.718-0.414,1.635-0.168,2.049,0.549c0.415,0.717,0.169,1.635-0.549,2.049l-3.463,2C4.737,34.594,4.479,34.658,4.224,34.658    L4.224,34.658z" id="svg_13" fill="#ffffff" fill-opacity="1"/>
	</g>
	<g id="svg_14" fill="#ffffff" fill-opacity="1">
		<linearGradient id="SVGID_7_" gradientUnits="userSpaceOnUse" x1="46.959999084472656" y1="5.24560022354126" x2="4.51039981842041" y2="47.695098876953125">
			<stop offset="0" style="stop-color:#31C2DD"/>
			<stop offset="1" style="stop-color:#0B9BD7"/>
		</linearGradient>
		<path style="" d="M11.908,42.527c-0.254,0-0.512-0.064-0.749-0.201c-0.717-0.414-0.963-1.331-0.549-2.049    l1.999-3.464c0.415-0.717,1.332-0.964,2.049-0.549c0.717,0.414,0.963,1.331,0.549,2.049l-1.999,3.464    C12.931,42.259,12.426,42.527,11.908,42.527L11.908,42.527z" id="svg_15" fill="#ffffff" fill-opacity="1"/>
	</g>
	<g id="svg_16" fill="#ffffff" fill-opacity="1">
		<linearGradient id="SVGID_8_" gradientUnits="userSpaceOnUse" x1="53.1083984375" y1="11.393099784851074" x2="10.65839958190918" y2="53.84299850463867">
			<stop offset="0" style="stop-color:#31C2DD"/>
			<stop offset="1" style="stop-color:#0B9BD7"/>
		</linearGradient>
		<path style="" d="M22.5,45.498c-0.829,0-1.5-0.672-1.5-1.5v-3.999c0-0.828,0.671-1.5,1.5-1.5    s1.5,0.672,1.5,1.5v3.999C24,44.826,23.329,45.498,22.5,45.498L22.5,45.498z" id="svg_17" fill="#ffffff" fill-opacity="1"/>
	</g>
	<g id="svg_18" fill="#ffffff" fill-opacity="1">
		<linearGradient id="SVGID_9_" gradientUnits="userSpaceOnUse" x1="56.70899963378906" y1="14.99370002746582" x2="14.259300231933594" y2="57.44329833984375">
			<stop offset="0" style="stop-color:#31C2DD"/>
			<stop offset="1" style="stop-color:#0B9BD7"/>
		</linearGradient>
		<path style="" d="M33.159,42.775c-0.518,0-1.021-0.269-1.3-0.75l-2-3.463    c-0.415-0.717-0.169-1.635,0.549-2.049c0.717-0.415,1.635-0.168,2.049,0.549l2,3.463c0.415,0.717,0.169,1.635-0.549,2.049    C33.673,42.711,33.414,42.775,33.159,42.775L33.159,42.775z" id="svg_19" fill="#ffffff" fill-opacity="1"/>
	</g>
	<g id="svg_20" fill="#ffffff" fill-opacity="1">
		<linearGradient id="SVGID_10_" gradientUnits="userSpaceOnUse" x1="56.80080032348633" y1="15.083499908447266" x2="14.348799705505371" y2="57.535499572753906">
			<stop offset="0" style="stop-color:#31C2DD"/>
			<stop offset="1" style="stop-color:#0B9BD7"/>
		</linearGradient>
		<path style="" d="M41.024,35.089c-0.254,0-0.512-0.064-0.748-0.201l-3.464-1.999    c-0.718-0.414-0.964-1.331-0.55-2.049c0.415-0.717,1.332-0.963,2.05-0.549l3.464,1.999c0.717,0.414,0.963,1.331,0.549,2.049    C42.048,34.82,41.544,35.089,41.024,35.089L41.024,35.089z" id="svg_21" fill="#ffffff" fill-opacity="1"/>
	</g>
	<g id="svg_22" fill="#ffffff" fill-opacity="1">
		<linearGradient id="SVGID_11_" gradientUnits="userSpaceOnUse" x1="53.355499267578125" y1="11.641599655151367" x2="10.907299995422363" y2="54.08980178833008">
			<stop offset="0" style="stop-color:#31C2DD"/>
			<stop offset="1" style="stop-color:#0B9BD7"/>
		</linearGradient>
		<path style="" d="M43.997,24.498h-3.999c-0.829,0-1.5-0.672-1.5-1.5s0.671-1.5,1.5-1.5h3.999    c0.828,0,1.5,0.672,1.5,1.5S44.825,24.498,43.997,24.498L43.997,24.498z" id="svg_23" fill="#ffffff" fill-opacity="1"/>
	</g>
	<g id="svg_24" fill="#ffffff" fill-opacity="1">
		<linearGradient id="SVGID_12_" gradientUnits="userSpaceOnUse" x1="47.29880142211914" y1="5.584499835968018" x2="4.849299907684326" y2="48.034000396728516">
			<stop offset="0" style="stop-color:#31C2DD"/>
			<stop offset="1" style="stop-color:#0B9BD7"/>
		</linearGradient>
		<path style="" d="M37.812,15.84c-0.518,0-1.022-0.269-1.301-0.75c-0.414-0.718-0.168-1.635,0.55-2.049    l3.464-1.999c0.719-0.415,1.635-0.169,2.049,0.549s0.168,1.635-0.549,2.049l-3.464,1.999C38.324,15.775,38.066,15.84,37.812,15.84    L37.812,15.84z" id="svg_25" fill="#ffffff" fill-opacity="1"/>
	</g>
	<g id="svg_26" fill="#ffffff" fill-opacity="1">
		<linearGradient id="SVGID_13_" gradientUnits="userSpaceOnUse" x1="40.25389862060547" y1="-1.461400032043457" x2="-2.1963000297546387" y2="40.98870086669922">
			<stop offset="0" style="stop-color:#31C2DD"/>
			<stop offset="1" style="stop-color:#0B9BD7"/>
		</linearGradient>
		<path style="" d="M31.587,9.436c-0.255,0-0.513-0.064-0.749-0.201c-0.718-0.414-0.964-1.332-0.549-2.049    l2-3.463c0.415-0.717,1.331-0.963,2.049-0.549s0.964,1.332,0.549,2.049l-2,3.463C32.608,9.167,32.104,9.436,31.587,9.436    L31.587,9.436z" id="svg_27" fill="#ffffff" fill-opacity="1"/>
	</g>
</g></g></svg>