<svg xmlns="http://www.w3.org/2000/svg" xmlns:xlink="http://www.w3.org/1999/xlink" version="1.1" width="44.884" height="44.231" style="enable-background:new 0 0 44.884 44.231;" xml:space="preserve"><rect id="backgroundrect" width="100%" height="100%" x="0" y="0" fill="none" stroke="none"/>

<g class="currentLayer" style=""><title>Layer 1</title><g id="svg_1" class="selected" fill="#ffffff" fill-opacity="1">
	<linearGradient id="SVGID_1_" gradientUnits="userSpaceOnUse" x1="39.89360046386719" y1="1.5498000383377075" x2="0.4618000090122223" y2="40.98160171508789">
		<stop offset="0" style="stop-color:#31C2DD"/>
		<stop offset="1" style="stop-color:#0B9BD7"/>
	</linearGradient>
	<path style="" d="M34.134,7.355c-0.547,0-1.094,0.043-1.635,0.128C30.626,2.992,26.244,0,21.24,0   C15.362,0,10.373,4.262,9.258,9.858C4.131,9.987,0,14.198,0,19.355c0,4.159,2.781,7.899,6.713,9.08   c0.845,0.278,1.719,0.42,2.6,0.42h25.256c0.966,0,1.923-0.173,2.847-0.513c4.471-1.43,7.469-5.537,7.469-10.237   C44.884,12.178,40.062,7.355,34.134,7.355z M36.164,24.543l-0.103,0.036c-0.489,0.184-0.992,0.276-1.493,0.276H9.312   c-0.454,0-0.907-0.073-1.397-0.234C5.61,23.928,4,21.763,4,19.355c0-3.032,2.467-5.5,5.5-5.5c0.375,0,0.754,0.039,1.125,0.115   l2.354,0.484l0.049-2.402C13.118,7.612,16.802,4,21.24,4c3.827,0,7.113,2.605,7.991,6.336l0.513,2.182l2.109-0.757   c0.748-0.27,1.516-0.405,2.28-0.405c3.723,0,6.75,3.028,6.75,6.75C40.884,21.067,38.987,23.655,36.164,24.543z" id="svg_2" fill="#ffffff" fill-opacity="1"/>
	<linearGradient id="SVGID_2_" gradientUnits="userSpaceOnUse" x1="42.28219985961914" y1="3.9409000873565674" x2="2.852099895477295" y2="43.37110137939453">
		<stop offset="0" style="stop-color:#31C2DD"/>
		<stop offset="1" style="stop-color:#0B9BD7"/>
	</linearGradient>
	<path style="" d="M13.472,31.469c-0.718-0.415-1.634-0.168-2.049,0.549l-1.999,3.464   c-0.414,0.718-0.168,1.635,0.549,2.049c0.236,0.137,0.494,0.201,0.749,0.201c0.519,0,1.023-0.269,1.301-0.75l1.999-3.464   C14.436,32.8,14.189,31.883,13.472,31.469z" id="svg_3" fill="#ffffff" fill-opacity="1"/>
	<linearGradient id="SVGID_3_" gradientUnits="userSpaceOnUse" x1="47.033199310302734" y1="8.690899848937988" x2="7.602200031280518" y2="48.12200164794922">
		<stop offset="0" style="stop-color:#31C2DD"/>
		<stop offset="1" style="stop-color:#0B9BD7"/>
	</linearGradient>
	<path style="" d="M22.972,31.469c-0.717-0.415-1.635-0.168-2.049,0.549l-1.999,3.464   c-0.414,0.718-0.168,1.635,0.549,2.049c0.236,0.137,0.494,0.201,0.749,0.201c0.519,0,1.023-0.269,1.301-0.75l1.999-3.464   C23.936,32.8,23.689,31.883,22.972,31.469z" id="svg_4" fill="#ffffff" fill-opacity="1"/>
	<linearGradient id="SVGID_4_" gradientUnits="userSpaceOnUse" x1="51.78120040893555" y1="13.441900253295898" x2="12.353500366210938" y2="52.869598388671875">
		<stop offset="0" style="stop-color:#31C2DD"/>
		<stop offset="1" style="stop-color:#0B9BD7"/>
	</linearGradient>
	<path style="" d="M32.472,31.469c-0.717-0.415-1.635-0.168-2.049,0.549l-1.999,3.464   c-0.414,0.718-0.168,1.635,0.55,2.049c0.236,0.137,0.494,0.201,0.748,0.201c0.519,0,1.023-0.269,1.301-0.75l1.999-3.464   C33.436,32.8,33.189,31.883,32.472,31.469z" id="svg_5" fill="#ffffff" fill-opacity="1"/>
	<linearGradient id="SVGID_5_" gradientUnits="userSpaceOnUse" x1="46.938499450683594" y1="8.598600387573242" x2="7.509099960327148" y2="48.02799987792969">
		<stop offset="0" style="stop-color:#31C2DD"/>
		<stop offset="1" style="stop-color:#0B9BD7"/>
	</linearGradient>
	<path style="" d="M16.285,37.969c-0.717-0.414-1.635-0.168-2.049,0.549l-1.999,3.464   c-0.414,0.718-0.168,1.635,0.549,2.049c0.236,0.137,0.494,0.201,0.749,0.201c0.519,0,1.023-0.269,1.301-0.75l1.999-3.464   C17.248,39.3,17.002,38.383,16.285,37.969z" id="svg_6" fill="#ffffff" fill-opacity="1"/>
	<linearGradient id="SVGID_6_" gradientUnits="userSpaceOnUse" x1="51.6875" y1="13.348099708557129" x2="12.258999824523926" y2="52.77669906616211">
		<stop offset="0" style="stop-color:#31C2DD"/>
		<stop offset="1" style="stop-color:#0B9BD7"/>
	</linearGradient>
	<path style="" d="M25.784,37.969c-0.717-0.414-1.635-0.168-2.049,0.549l-1.999,3.464   c-0.414,0.718-0.168,1.635,0.549,2.049c0.236,0.137,0.494,0.201,0.749,0.201c0.519,0,1.023-0.269,1.301-0.75l1.999-3.464   C26.748,39.3,26.502,38.383,25.784,37.969z" id="svg_7" fill="#ffffff" fill-opacity="1"/>
</g></g></svg>