<?xml version="1.0" standalone="no"?>
<!DOCTYPE svg PUBLIC "-//W3C//DTD SVG 20010904//EN"
 "http://www.w3.org/TR/2001/REC-SVG-20010904/DTD/svg10.dtd">
<svg version="1.0" xmlns="http://www.w3.org/2000/svg"
 width="100.000000pt" height="100.000000pt" viewBox="0 0 100.000000 100.000000"
 preserveAspectRatio="xMidYMid meet">

<g transform="translate(0.000000,100.000000) scale(0.100000,-0.100000)"
fill="#E9E9E9" stroke="none">
<path d="M107 893 c-4 -3 -7 -37 -7 -75 l0 -68 -38 0 c-21 0 -43 -5 -50 -12
-9 -9 -12 -91 -12 -309 0 -257 2 -300 16 -313 14 -14 71 -16 484 -16 413 0
470 2 484 16 14 13 16 49 16 238 0 159 -3 225 -12 234 -8 8 -50 12 -125 12
l-113 0 0 138 c0 94 -4 142 -12 150 -17 17 -259 17 -276 0 -7 -7 -12 -39 -12
-75 l0 -63 -50 0 -49 0 -3 73 c-3 67 -5 72 -26 75 -40 6 -52 -14 -52 -84 l0
-64 -45 0 -45 0 0 63 c0 36 -5 68 -12 75 -13 13 -50 16 -61 5z m538 -143 l0
-45 -45 0 c-44 0 -45 1 -48 33 -5 54 2 64 50 60 l43 -3 0 -45z m-450 -150 l0
-45 -45 0 c-44 0 -45 1 -48 33 -5 54 2 64 50 60 l43 -3 0 -45z m200 0 l0 -45
-45 0 c-44 0 -45 1 -48 33 -5 54 2 64 50 60 l43 -3 0 -45z m250 0 l0 -45 -45
0 c-44 0 -45 1 -48 33 -5 54 2 64 50 60 l43 -3 0 -45z m-450 -150 l0 -45 -45
0 c-44 0 -45 1 -48 33 -5 54 2 64 50 60 l43 -3 0 -45z m200 0 l0 -45 -45 0
c-44 0 -45 1 -48 33 -5 54 2 64 50 60 l43 -3 0 -45z m250 0 l0 -45 -45 0 c-44
0 -45 1 -48 33 -5 54 2 64 50 60 l43 -3 0 -45z m250 0 l0 -45 -45 0 c-44 0
-45 1 -48 33 -5 54 2 64 50 60 l43 -3 0 -45z m-700 -150 l0 -45 -45 0 c-44 0
-45 1 -48 33 -5 54 2 64 50 60 l43 -3 0 -45z m200 0 l0 -45 -45 0 c-44 0 -45
1 -48 33 -5 54 2 64 50 60 l43 -3 0 -45z m500 0 l0 -45 -45 0 c-44 0 -45 1
-48 33 -5 54 2 64 50 60 l43 -3 0 -45z"/>
</g>
</svg>
