<?xml version="1.0" standalone="no"?>
<!DOCTYPE svg PUBLIC "-//W3C//DTD SVG 20010904//EN"
 "http://www.w3.org/TR/2001/REC-SVG-20010904/DTD/svg10.dtd">
<svg version="1.0" xmlns="http://www.w3.org/2000/svg"
 width="100.000000pt" height="100.000000pt" viewBox="0 0 100.000000 100.000000"
 preserveAspectRatio="xMidYMid meet">

<g transform="translate(0.000000,100.000000) scale(0.100000,-0.100000)"
fill="#E9E9E9" stroke="none">
<path d="M398 974 c-21 -6 -30 -35 -26 -84 3 -32 -1 -36 -47 -62 -27 -16 -56
-31 -62 -34 -7 -3 -29 3 -48 15 -50 29 -66 27 -98 -14 -32 -40 -77 -132 -77
-157 0 -10 19 -29 45 -44 l46 -26 -3 -72 -3 -71 -43 -23 c-23 -13 -42 -31 -42
-40 0 -24 45 -116 76 -157 31 -41 45 -43 100 -13 l41 22 48 -32 c27 -18 52
-32 57 -32 4 0 8 -21 8 -47 0 -75 5 -78 123 -81 124 -4 137 3 137 76 1 46 1
47 58 81 l57 33 50 -27 49 -27 32 37 c38 46 84 134 84 163 0 13 -15 29 -45 46
l-45 27 0 68 0 69 45 26 c26 16 45 34 45 44 -1 48 -91 192 -121 192 -10 0 -34
-9 -54 -21 -19 -12 -41 -18 -48 -15 -6 3 -34 18 -62 34 -49 27 -50 28 -47 72
4 70 -3 75 -115 77 -54 1 -106 -1 -115 -3z m202 -360 c71 -65 75 -152 8 -221
-65 -68 -157 -65 -222 7 -33 37 -36 45 -36 101 0 59 2 63 44 105 42 42 46 44
105 44 56 0 64 -3 101 -36z"/>
</g>
</svg>
