<?xml version="1.0" standalone="no"?>
<!DOCTYPE svg PUBLIC "-//W3C//DTD SVG 20010904//EN"
 "http://www.w3.org/TR/2001/REC-SVG-20010904/DTD/svg10.dtd">
<svg version="1.0" xmlns="http://www.w3.org/2000/svg"
 width="236.000000pt" height="213.000000pt" viewBox="0 0 236.000000 213.000000"
 preserveAspectRatio="xMidYMid meet">

<g transform="translate(0.000000,213.000000) scale(0.100000,-0.100000)"
fill="#43B5DB" stroke="none">
<path d="M1945 2120 c-106 -15 -210 -91 -261 -192 -39 -74 -45 -199 -15 -278
40 -107 114 -179 223 -218 l48 -17 0 -61 0 -62 -37 -6 c-21 -3 -348 -46 -728
-96 -379 -49 -702 -92 -717 -95 -28 -4 -28 -4 -28 50 0 46 3 55 18 55 37 0
123 53 171 106 70 77 94 144 89 254 -3 73 -9 94 -38 148 -82 154 -250 225
-416 174 -250 -77 -333 -380 -161 -578 32 -36 124 -92 180 -108 15 -5 18 -15
15 -63 l-3 -58 -85 -12 c-71 -10 -89 -16 -108 -38 -48 -56 -10 -135 65 -135
21 0 225 25 453 55 228 30 427 55 441 55 l25 0 -90 -420 -90 -420 -73 0 c-65
0 -77 -3 -98 -25 -45 -44 -24 -115 37 -130 13 -3 214 -4 446 -3 l424 3 19 24
c26 32 24 77 -6 106 -21 22 -33 25 -97 25 l-73 0 -108 431 c-59 238 -106 434
-104 436 4 3 967 133 990 133 22 0 57 51 57 82 -1 69 -44 94 -140 79 -38 -6
-74 -11 -79 -11 -7 0 -11 23 -11 55 0 44 4 57 18 61 96 28 186 107 230 202 22
48 27 71 26 143 0 77 -3 94 -32 152 -71 143 -217 220 -377 197z m180 -215 c30
-30 32 -73 5 -103 -20 -21 -20 -21 0 -35 29 -20 41 -61 29 -97 -17 -48 -52
-60 -179 -60 l-110 0 0 160 0 160 115 0 c110 0 117 -1 140 -25z m-1659 -330
c30 -77 56 -148 60 -157 5 -16 -2 -18 -50 -18 -49 0 -55 2 -58 23 -3 19 -10
22 -60 25 -54 3 -58 2 -64 -23 -6 -23 -11 -25 -59 -25 l-52 0 61 160 60 161
54 -3 55 -3 53 -140z"/>
<path d="M1970 1829 c0 -30 1 -31 32 -25 39 8 53 20 45 40 -4 10 -19 16 -42
16 -33 0 -35 -2 -35 -31z"/>
<path d="M1970 1710 c0 -30 1 -31 43 -28 37 3 42 6 42 28 0 22 -5 25 -42 28
-42 3 -43 2 -43 -28z"/>
<path d="M339 1575 l-16 -55 34 0 c38 0 37 -4 9 77 l-11 32 -16 -54z"/>
</g>
</svg>
