<?xml version="1.0" standalone="no"?>
<!DOCTYPE svg PUBLIC "-//W3C//DTD SVG 20010904//EN"
 "http://www.w3.org/TR/2001/REC-SVG-20010904/DTD/svg10.dtd">
<svg version="1.0" xmlns="http://www.w3.org/2000/svg"
 width="240.000000pt" height="240.000000pt" viewBox="0 0 240.000000 240.000000"
 preserveAspectRatio="xMidYMid meet">

<g transform="translate(0.000000,240.000000) scale(0.100000,-0.100000)"
fill="#43B5DB" stroke="none">
<path d="M1050 2385 c-148 -33 -261 -88 -373 -180 -89 -73 -148 -150 -202
-260 -152 -311 -75 -636 298 -1260 150 -252 417 -670 427 -670 10 0 249 373
416 651 317 527 422 841 370 1104 -20 101 -85 240 -150 322 -99 124 -265 233
-426 278 -98 28 -270 35 -360 15z m282 -100 c255 -54 462 -234 540 -470 30
-92 32 -254 4 -365 -42 -166 -150 -402 -303 -660 -132 -224 -364 -590 -373
-590 -10 0 -254 387 -387 615 -153 261 -247 467 -289 635 -28 111 -26 273 4
365 109 329 471 541 804 470z"/>
<path d="M1105 1883 c-211 -76 -272 -336 -115 -493 61 -61 119 -85 210 -85 91
0 149 24 210 85 61 61 85 119 85 210 0 91 -24 149 -85 210 -80 80 -203 109
-305 73z m200 -116 c20 -14 49 -42 63 -64 22 -31 27 -49 27 -103 0 -75 -26
-123 -92 -168 -31 -22 -49 -27 -103 -27 -54 0 -72 5 -103 27 -66 45 -92 93
-92 168 0 54 5 72 27 103 27 40 78 80 113 90 42 12 124 -1 160 -26z"/>
</g>
</svg>
