<?xml version="1.0" standalone="no"?>
<!DOCTYPE svg PUBLIC "-//W3C//DTD SVG 20010904//EN"
 "http://www.w3.org/TR/2001/REC-SVG-20010904/DTD/svg10.dtd">
<svg version="1.0" xmlns="http://www.w3.org/2000/svg"
 width="100.000000pt" height="100.000000pt" viewBox="0 0 100.000000 100.000000"
 preserveAspectRatio="xMidYMid meet">

<g transform="translate(0.000000,100.000000) scale(0.100000,-0.100000)"
fill="#E9E9E9" stroke="none">
<path d="M405 921 c-51 -23 -78 -54 -106 -115 -27 -61 -22 -106 20 -190 45
-89 157 -236 180 -236 24 0 138 148 182 236 42 84 47 129 20 190 -41 92 -104
134 -201 134 -32 0 -71 -8 -95 -19z"/>
<path d="M843 612 l-123 -57 0 -247 c0 -137 4 -248 8 -248 25 0 240 94 255
112 15 18 17 46 17 253 0 203 -2 234 -16 239 -9 3 -16 6 -17 5 -1 -1 -57 -26
-124 -57z"/>
<path d="M130 609 c-52 -21 -103 -49 -112 -60 -16 -19 -18 -47 -18 -249 0
-170 3 -230 12 -238 10 -7 48 6 138 47 l125 57 3 202 c2 187 1 205 -18 242
-11 22 -24 40 -28 39 -4 0 -50 -18 -102 -40z"/>
<path d="M332 326 l3 -159 163 -55 c90 -30 165 -52 168 -50 2 3 3 98 2 212
l-3 206 -54 -70 c-61 -81 -81 -94 -125 -86 -25 5 -46 22 -86 74 -30 37 -58 71
-62 77 -5 5 -7 -62 -6 -149z"/>
</g>
</svg>
