<?xml version="1.0" standalone="no"?>
<!DOCTYPE svg PUBLIC "-//W3C//DTD SVG 20010904//EN"
 "http://www.w3.org/TR/2001/REC-SVG-20010904/DTD/svg10.dtd">
<svg version="1.0" xmlns="http://www.w3.org/2000/svg"
 width="225.000000pt" height="225.000000pt" viewBox="0 0 225.000000 225.000000"
 preserveAspectRatio="xMidYMid meet">

<g transform="translate(0.000000,225.000000) scale(0.100000,-0.100000)"
fill="#bfc1c8" stroke="none">
<path d="M1095 2150 c-11 -4 -113 -102 -227 -217 -186 -187 -208 -213 -208
-242 0 -45 46 -91 91 -91 28 0 49 16 154 120 66 66 123 120 125 120 3 0 4 -91
2 -202 -3 -231 0 -261 33 -294 51 -51 136 -18 150 57 3 19 5 125 3 237 -2 111
-1 202 2 202 2 0 59 -54 125 -120 105 -104 126 -120 154 -120 45 0 91 46 91
91 0 30 -22 55 -212 246 -212 211 -240 232 -283 213z"/>
<path d="M342 1364 c-33 -23 -45 -60 -32 -100 7 -19 45 -65 95 -113 72 -69 90
-81 118 -81 69 0 114 68 84 127 -9 15 -51 63 -95 106 -68 65 -85 77 -114 77
-18 0 -44 -7 -56 -16z"/>
<path d="M1738 1303 c-44 -43 -86 -91 -95 -106 -30 -59 15 -127 84 -127 28 0
46 12 118 81 50 48 88 94 95 113 20 61 -22 116 -88 116 -29 0 -46 -12 -114
-77z"/>
<path d="M1030 1114 c-253 -49 -454 -273 -461 -514 -2 -72 6 -97 41 -115 36
-19 54 -19 90 0 31 16 50 62 50 122 0 49 37 137 80 191 147 187 443 187 590 0
43 -54 80 -142 80 -191 0 -60 19 -106 50 -122 36 -19 54 -19 90 0 35 18 43 43
41 115 -3 116 -58 244 -146 338 -107 116 -228 172 -385 177 -52 2 -106 1 -120
-1z"/>
<path d="M28 620 c-26 -27 -30 -36 -25 -68 4 -22 17 -46 32 -59 24 -21 36 -23
151 -23 125 0 126 0 155 29 20 20 29 39 29 61 0 22 -9 41 -29 61 -29 29 -29
29 -156 29 l-127 0 -30 -30z"/>
<path d="M1909 621 c-20 -20 -29 -39 -29 -61 0 -22 9 -41 29 -61 29 -29 30
-29 155 -29 115 0 127 2 151 23 15 13 28 37 32 59 5 32 1 41 -25 68 l-30 30
-127 0 c-127 0 -127 0 -156 -29z"/>
<path d="M30 250 c-46 -46 -32 -122 26 -146 49 -21 2089 -21 2138 0 58 24 72
100 26 146 -20 20 -38 20 -1095 20 -1057 0 -1075 0 -1095 -20z"/>
</g>
</svg>
