<?xml version="1.0" standalone="no"?>
<!DOCTYPE svg PUBLIC "-//W3C//DTD SVG 20010904//EN"
 "http://www.w3.org/TR/2001/REC-SVG-20010904/DTD/svg10.dtd">
<svg version="1.0" xmlns="http://www.w3.org/2000/svg"
 width="225.000000pt" height="225.000000pt" viewBox="0 0 225.000000 225.000000"
 preserveAspectRatio="xMidYMid meet">

<g transform="translate(0.000000,225.000000) scale(0.100000,-0.100000)"
fill="#bfc1c8" stroke="none">
<path d="M1111 2237 c-43 -25 -50 -53 -51 -189 0 -120 1 -128 25 -156 30 -36
69 -45 113 -26 52 21 64 64 60 205 -3 112 -4 120 -29 144 -30 31 -85 41 -118
22z"/>
<path d="M448 1905 c-35 -20 -48 -44 -48 -90 0 -33 9 -47 78 -117 103 -107
137 -123 196 -97 32 15 60 72 51 107 -4 15 -46 66 -93 114 -95 97 -131 113
-184 83z"/>
<path d="M1785 1911 c-11 -5 -59 -49 -107 -99 -79 -80 -88 -93 -88 -126 0 -52
44 -96 96 -96 33 0 46 9 133 94 90 89 96 97 96 135 0 67 -72 117 -130 92z"/>
<path d="M1033 1706 c-79 -19 -191 -77 -253 -133 -105 -94 -180 -257 -180
-389 l0 -64 -239 0 -239 0 -26 -31 c-36 -43 -35 -91 3 -130 l29 -29 997 0 997
0 29 29 c38 39 39 87 3 130 l-26 31 -202 0 -203 0 -6 73 c-18 233 -171 430
-386 498 -85 27 -216 33 -298 15z m279 -218 c116 -54 197 -170 206 -299 l5
-69 -364 2 -364 3 1 51 c2 68 27 138 69 196 42 58 89 93 162 124 80 34 201 30
285 -8z"/>
<path d="M1060 563 l0 -227 -63 62 -63 62 -69 -70 -70 -70 145 -146 c80 -80
158 -152 174 -161 56 -29 79 -15 249 155 l157 157 -70 70 -70 69 -60 -59 -60
-59 0 222 0 222 -100 0 -100 0 0 -227z"/>
</g>
</svg>
